<svg fill="#828282" id="Capa_1" enable-background="new 0 0 511.751 511.751" height="512" viewBox="0 0 511.751 511.751" width="512" xmlns="http://www.w3.org/2000/svg"><g><g><path d="m496.751 480.875h-115.399c-61.102 0-117.797-21.448-159.643-60.394-69.553-64.733-45.266-125.091-71.61-156.488-39.662 51.125-61.349 114.169-61.349 179.161v22.721c0 8.284-6.716 15-15 15h-30c-8.284 0-15-6.716-15-15v-111.947c0-116.765-39.776-125.934-25.758-202.943 8.208-45.077 28.445-84.01 60.152-115.717 5.857-5.856 15.355-5.858 21.213 0 136.426 136.427 173.337 248.029 187.232 290.042 7.843 23.698 26.215 34.124 45.226 34.893 17.906.713 34.518-7.742 44.456-22.648 4.744-7.117 14.463-8.817 21.338-3.785l123 90c3.861 2.825 6.143 7.322 6.143 12.105v30c-.001 8.284-6.717 15-15.001 15z"/></g></g></svg>